<?xml version="1.0" encoding="UTF-8" standalone="no"?>
<!DOCTYPE svg PUBLIC "-//W3C//DTD SVG 1.1//EN"
 "http://www.w3.org/Graphics/SVG/1.1/DTD/svg11.dtd">
<!-- Generated by graphviz version 2.40.1 (20161225.0304)
 -->
<!-- Title: dependencies Pages: 1 -->
<svg width="3538pt" height="363pt"
 viewBox="0.00 0.00 3538.00 363.00" xmlns="http://www.w3.org/2000/svg" xmlns:xlink="http://www.w3.org/1999/xlink">
<g id="graph0" class="graph" transform="scale(1 1) rotate(0) translate(4 359)">
<title>dependencies</title>
<polygon fill="#ffffff" stroke="transparent" points="-4,4 -4,-359 3534,-359 3534,4 -4,4"/>
<text text-anchor="start" x="1744.0091" y="-42.4" font-family="sans-serif" font-weight="bold" font-size="14.00" fill="#000000">Legend</text>
<polygon fill="#ffffb3" stroke="transparent" points="1531,-10 1531,-30 1551,-30 1551,-10 1531,-10"/>
<text text-anchor="start" x="1554.629" y="-15.4" font-family="sans-serif" font-size="14.00" fill="#000000"> &#160;Declarations</text>
<polygon fill="#8dd3c7" stroke="transparent" points="1644,-10 1644,-30 1664,-30 1664,-10 1644,-10"/>
<text text-anchor="start" x="1667.7251" y="-15.4" font-family="sans-serif" font-size="14.00" fill="#000000"> &#160;Module</text>
<polygon fill="#80b1d3" stroke="transparent" points="1730,-10 1730,-30 1750,-30 1750,-10 1730,-10"/>
<text text-anchor="start" x="1753.7812" y="-15.4" font-family="sans-serif" font-size="14.00" fill="#000000"> &#160;Bootstrap</text>
<polygon fill="#fdb462" stroke="transparent" points="1827,-10 1827,-30 1847,-30 1847,-10 1827,-10"/>
<text text-anchor="start" x="1850.6732" y="-15.4" font-family="sans-serif" font-size="14.00" fill="#000000"> &#160;Providers</text>
<polygon fill="#fb8072" stroke="transparent" points="1923,-10 1923,-30 1943,-30 1943,-10 1923,-10"/>
<text text-anchor="start" x="1946.7258" y="-15.4" font-family="sans-serif" font-size="14.00" fill="#000000"> &#160;Exports</text>
<g id="clust1" class="cluster">
<title>cluster_AppCoreModule</title>
<polygon fill="none" stroke="#000000" stroke-dasharray="1,5" points="8,-70 8,-279 537,-279 537,-70 8,-70"/>
</g>
<g id="clust2" class="cluster">
<title>cluster_AppCoreModule_declarations</title>
<polygon fill="none" stroke="#000000" points="214,-78 214,-130 529,-130 529,-78 214,-78"/>
</g>
<g id="clust6" class="cluster">
<title>cluster_AppCoreModule_exports</title>
<polygon fill="none" stroke="#000000" points="291,-219 291,-271 443,-271 443,-219 291,-219"/>
</g>
<g id="clust8" class="cluster">
<title>cluster_AppCoreModule_providers</title>
<polygon fill="none" stroke="#000000" points="16,-78 16,-130 206,-130 206,-78 16,-78"/>
</g>
<g id="clust9" class="cluster">
<title>cluster_AppModule</title>
<polygon fill="none" stroke="#000000" stroke-dasharray="1,5" points="545,-146 545,-347 835,-347 835,-146 545,-146"/>
</g>
<g id="clust10" class="cluster">
<title>cluster_AppModule_declarations</title>
<polygon fill="none" stroke="#000000" points="705,-154 705,-206 827,-206 827,-154 705,-154"/>
</g>
<g id="clust12" class="cluster">
<title>cluster_AppModule_imports</title>
<polygon fill="none" stroke="#000000" points="553,-154 553,-206 697,-206 697,-154 553,-154"/>
</g>
<g id="clust14" class="cluster">
<title>cluster_AppModule_bootstrap</title>
<polygon fill="none" stroke="#000000" points="563,-287 563,-339 687,-339 687,-287 563,-287"/>
</g>
<g id="clust16" class="cluster">
<title>cluster_AppPagesModule</title>
<polygon fill="none" stroke="#000000" stroke-dasharray="1,5" points="843,-70 843,-271 1449,-271 1449,-70 843,-70"/>
</g>
<g id="clust17" class="cluster">
<title>cluster_AppPagesModule_declarations</title>
<polygon fill="none" stroke="#000000" points="1153,-154 1153,-206 1441,-206 1441,-154 1153,-154"/>
</g>
<g id="clust20" class="cluster">
<title>cluster_AppPagesModule_imports</title>
<polygon fill="none" stroke="#000000" points="851,-78 851,-206 1145,-206 1145,-78 851,-78"/>
</g>
<g id="clust48" class="cluster">
<title>cluster_DashboardModule</title>
<polygon fill="none" stroke="#000000" stroke-dasharray="1,5" points="1457,-70 1457,-138 3045,-138 3045,-70 1457,-70"/>
</g>
<g id="clust49" class="cluster">
<title>cluster_DashboardModule_declarations</title>
<polygon fill="none" stroke="#000000" points="1655,-78 1655,-130 3037,-130 3037,-78 1655,-78"/>
</g>
<g id="clust59" class="cluster">
<title>cluster_DashboardModule_imports</title>
<polygon fill="none" stroke="#000000" points="1465,-78 1465,-130 1647,-130 1647,-78 1465,-78"/>
</g>
<g id="clust75" class="cluster">
<title>cluster_PapersModule</title>
<polygon fill="none" stroke="#000000" stroke-dasharray="1,5" points="3053,-70 3053,-206 3522,-206 3522,-70 3053,-70"/>
</g>
<g id="clust76" class="cluster">
<title>cluster_PapersModule_declarations</title>
<polygon fill="none" stroke="#000000" points="3227,-78 3227,-130 3514,-130 3514,-78 3227,-78"/>
</g>
<g id="clust79" class="cluster">
<title>cluster_PapersModule_imports</title>
<polygon fill="none" stroke="#000000" points="3061,-78 3061,-130 3219,-130 3219,-78 3061,-78"/>
</g>
<!-- NotificationComponent -->
<g id="node1" class="node">
<title>NotificationComponent</title>
<polygon fill="#ffffb3" stroke="#000000" points="521.4818,-122 372.5182,-122 372.5182,-86 521.4818,-86 521.4818,-122"/>
<text text-anchor="middle" x="447" y="-99.8" font-family="Times,serif" font-size="14.00" fill="#000000">NotificationComponent</text>
</g>
<!-- AppCoreModule -->
<g id="node3" class="node">
<title>AppCoreModule</title>
<polygon fill="#8dd3c7" stroke="#000000" points="422.3683,-198 419.3683,-202 398.3683,-202 395.3683,-198 311.6317,-198 311.6317,-162 422.3683,-162 422.3683,-198"/>
<text text-anchor="middle" x="367" y="-175.8" font-family="Times,serif" font-size="14.00" fill="#000000">AppCoreModule</text>
</g>
<!-- NotificationComponent&#45;&gt;AppCoreModule -->
<g id="edge1" class="edge">
<title>NotificationComponent&#45;&gt;AppCoreModule</title>
<path fill="none" stroke="#000000" d="M397.4716,-122.0109C397.4716,-122.0109 397.4716,-151.855 397.4716,-151.855"/>
<polygon fill="#000000" stroke="#000000" points="393.9717,-151.8549 397.4716,-161.855 400.9717,-151.855 393.9717,-151.8549"/>
</g>
<!-- AppCoreComponent -->
<g id="node2" class="node">
<title>AppCoreComponent</title>
<polygon fill="#ffffb3" stroke="#000000" points="354.1513,-122 221.8487,-122 221.8487,-86 354.1513,-86 354.1513,-122"/>
<text text-anchor="middle" x="288" y="-99.8" font-family="Times,serif" font-size="14.00" fill="#000000">AppCoreComponent</text>
</g>
<!-- AppCoreComponent&#45;&gt;AppCoreModule -->
<g id="edge2" class="edge">
<title>AppCoreComponent&#45;&gt;AppCoreModule</title>
<path fill="none" stroke="#000000" d="M332.9457,-122.0109C332.9457,-122.0109 332.9457,-151.855 332.9457,-151.855"/>
<polygon fill="#000000" stroke="#000000" points="329.4457,-151.8549 332.9457,-161.855 336.4457,-151.855 329.4457,-151.8549"/>
</g>
<!-- AppCoreComponent  -->
<g id="node4" class="node">
<title>AppCoreComponent </title>
<polygon fill="#fb8072" stroke="#000000" points="435.1509,-263 298.8491,-263 298.8491,-227 435.1509,-227 435.1509,-263"/>
<text text-anchor="middle" x="367" y="-240.8" font-family="Times,serif" font-size="14.00" fill="#000000">AppCoreComponent </text>
</g>
<!-- AppCoreModule&#45;&gt;AppCoreComponent  -->
<g id="edge3" class="edge">
<title>AppCoreModule&#45;&gt;AppCoreComponent </title>
<path fill="none" stroke="#000000" stroke-dasharray="5,2" d="M367,-198.1061C367,-198.1061 367,-216.991 367,-216.991"/>
<polygon fill="#000000" stroke="#000000" points="363.5001,-216.9909 367,-226.991 370.5001,-216.991 363.5001,-216.9909"/>
</g>
<!-- AppModule -->
<g id="node7" class="node">
<title>AppModule</title>
<polygon fill="#8dd3c7" stroke="#000000" points="666.6571,-263 663.6571,-267 642.6571,-267 639.6571,-263 583.3429,-263 583.3429,-227 666.6571,-227 666.6571,-263"/>
<text text-anchor="middle" x="625" y="-240.8" font-family="Times,serif" font-size="14.00" fill="#000000">AppModule</text>
</g>
<!-- AppCoreModule&#45;&gt;AppModule -->
<g id="edge7" class="edge">
<title>AppCoreModule&#45;&gt;AppModule</title>
<path fill="none" stroke="#000000" d="M422.5497,-180C473.4871,-180 541.0519,-180 541.0519,-180 541.0519,-180 541.0519,-245 541.0519,-245 541.0519,-245 573.026,-245 573.026,-245"/>
<polygon fill="#000000" stroke="#000000" points="573.026,-248.5001 583.026,-245 573.0259,-241.5001 573.026,-248.5001"/>
</g>
<!-- NotificationService -->
<g id="node5" class="node">
<title>NotificationService</title>
<ellipse fill="#fdb462" stroke="#000000" cx="111" cy="-104" rx="86.8107" ry="18"/>
<text text-anchor="middle" x="111" y="-99.8" font-family="Times,serif" font-size="14.00" fill="#000000">NotificationService</text>
</g>
<!-- NotificationService&#45;&gt;AppCoreModule -->
<g id="edge4" class="edge">
<title>NotificationService&#45;&gt;AppCoreModule</title>
<path fill="none" stroke="#000000" d="M111,-122.0109C111,-144.4852 111,-180 111,-180 111,-180 301.4518,-180 301.4518,-180"/>
<polygon fill="#000000" stroke="#000000" points="301.4518,-183.5001 311.4518,-180 301.4518,-176.5001 301.4518,-183.5001"/>
</g>
<!-- AppComponent -->
<g id="node6" class="node">
<title>AppComponent</title>
<polygon fill="#ffffb3" stroke="#000000" points="818.9399,-198 713.0601,-198 713.0601,-162 818.9399,-162 818.9399,-198"/>
<text text-anchor="middle" x="766" y="-175.8" font-family="Times,serif" font-size="14.00" fill="#000000">AppComponent</text>
</g>
<!-- AppComponent&#45;&gt;AppModule -->
<g id="edge5" class="edge">
<title>AppComponent&#45;&gt;AppModule</title>
<path fill="none" stroke="#000000" d="M766,-198.2843C766,-219.3211 766,-251 766,-251 766,-251 676.9229,-251 676.9229,-251"/>
<polygon fill="#000000" stroke="#000000" points="676.9229,-247.5001 666.9229,-251 676.9229,-254.5001 676.9229,-247.5001"/>
</g>
<!-- AppComponent  -->
<g id="node9" class="node">
<title>AppComponent </title>
<polygon fill="#80b1d3" stroke="#000000" points="679.439,-331 570.561,-331 570.561,-295 679.439,-295 679.439,-331"/>
<text text-anchor="middle" x="625" y="-308.8" font-family="Times,serif" font-size="14.00" fill="#000000">AppComponent </text>
</g>
<!-- AppModule&#45;&gt;AppComponent  -->
<g id="edge8" class="edge">
<title>AppModule&#45;&gt;AppComponent </title>
<path fill="none" stroke="#000000" stroke-dasharray="1,5" d="M625,-263.2228C625,-263.2228 625,-284.7269 625,-284.7269"/>
<polygon fill="#000000" stroke="#000000" points="621.5001,-284.7269 625,-294.7269 628.5001,-284.727 621.5001,-284.7269"/>
</g>
<!-- AppRoutingModule -->
<g id="node8" class="node">
<title>AppRoutingModule</title>
<polygon fill="#8dd3c7" stroke="#000000" points="689.2744,-198 686.2744,-202 665.2744,-202 662.2744,-198 560.7256,-198 560.7256,-162 689.2744,-162 689.2744,-198"/>
<text text-anchor="middle" x="625" y="-175.8" font-family="Times,serif" font-size="14.00" fill="#000000">AppRoutingModule</text>
</g>
<!-- AppRoutingModule&#45;&gt;AppModule -->
<g id="edge6" class="edge">
<title>AppRoutingModule&#45;&gt;AppModule</title>
<path fill="none" stroke="#000000" d="M625,-198.1061C625,-198.1061 625,-216.991 625,-216.991"/>
<polygon fill="#000000" stroke="#000000" points="621.5001,-216.9909 625,-226.991 628.5001,-216.991 621.5001,-216.9909"/>
</g>
<!-- AppPagesComponent -->
<g id="node10" class="node">
<title>AppPagesComponent</title>
<polygon fill="#ffffb3" stroke="#000000" points="1299.0954,-198 1160.9046,-198 1160.9046,-162 1299.0954,-162 1299.0954,-198"/>
<text text-anchor="middle" x="1230" y="-175.8" font-family="Times,serif" font-size="14.00" fill="#000000">AppPagesComponent</text>
</g>
<!-- AppPagesModule -->
<g id="node12" class="node">
<title>AppPagesModule</title>
<polygon fill="#8dd3c7" stroke="#000000" points="1135.3132,-263 1132.3132,-267 1111.3132,-267 1108.3132,-263 1018.6868,-263 1018.6868,-227 1135.3132,-227 1135.3132,-263"/>
<text text-anchor="middle" x="1077" y="-240.8" font-family="Times,serif" font-size="14.00" fill="#000000">AppPagesModule</text>
</g>
<!-- AppPagesComponent&#45;&gt;AppPagesModule -->
<g id="edge9" class="edge">
<title>AppPagesComponent&#45;&gt;AppPagesModule</title>
<path fill="none" stroke="#000000" d="M1230,-198.1061C1230,-217.3391 1230,-245 1230,-245 1230,-245 1145.2792,-245 1145.2792,-245"/>
<polygon fill="#000000" stroke="#000000" points="1145.2792,-241.5001 1135.2792,-245 1145.2792,-248.5001 1145.2792,-241.5001"/>
</g>
<!-- HomeComponent -->
<g id="node11" class="node">
<title>HomeComponent</title>
<polygon fill="#ffffb3" stroke="#000000" points="1432.5451,-198 1317.4549,-198 1317.4549,-162 1432.5451,-162 1432.5451,-198"/>
<text text-anchor="middle" x="1375" y="-175.8" font-family="Times,serif" font-size="14.00" fill="#000000">HomeComponent</text>
</g>
<!-- HomeComponent&#45;&gt;AppPagesModule -->
<g id="edge10" class="edge">
<title>HomeComponent&#45;&gt;AppPagesModule</title>
<path fill="none" stroke="#000000" d="M1375,-198.2921C1375,-220.2057 1375,-254 1375,-254 1375,-254 1145.1648,-254 1145.1648,-254"/>
<polygon fill="#000000" stroke="#000000" points="1145.1649,-250.5001 1135.1648,-254 1145.1648,-257.5001 1145.1649,-250.5001"/>
</g>
<!-- AppPagesRoutingModule -->
<g id="node13" class="node">
<title>AppPagesRoutingModule</title>
<polygon fill="#8dd3c7" stroke="#000000" points="1020.9312,-122 1017.9312,-126 996.9312,-126 993.9312,-122 859.0688,-122 859.0688,-86 1020.9312,-86 1020.9312,-122"/>
<text text-anchor="middle" x="940" y="-99.8" font-family="Times,serif" font-size="14.00" fill="#000000">AppPagesRoutingModule</text>
</g>
<!-- AppPagesRoutingModule&#45;&gt;AppPagesModule -->
<g id="edge11" class="edge">
<title>AppPagesRoutingModule&#45;&gt;AppPagesModule</title>
<path fill="none" stroke="#000000" d="M938.0947,-122.2067C938.0947,-159.0559 938.0947,-239 938.0947,-239 938.0947,-239 1008.4942,-239 1008.4942,-239"/>
<polygon fill="#000000" stroke="#000000" points="1008.4942,-242.5001 1018.4942,-239 1008.4942,-235.5001 1008.4942,-242.5001"/>
</g>
<!-- ThemeModule -->
<g id="node14" class="node">
<title>ThemeModule</title>
<polygon fill="#8dd3c7" stroke="#000000" points="1137.4231,-122 1134.4231,-126 1113.4231,-126 1110.4231,-122 1038.5769,-122 1038.5769,-86 1137.4231,-86 1137.4231,-122"/>
<text text-anchor="middle" x="1088" y="-99.8" font-family="Times,serif" font-size="14.00" fill="#000000">ThemeModule</text>
</g>
<!-- ThemeModule&#45;&gt;AppPagesModule -->
<g id="edge12" class="edge">
<title>ThemeModule&#45;&gt;AppPagesModule</title>
<path fill="none" stroke="#000000" d="M1137.2945,-98C1146.3656,-98 1153.0386,-98 1153.0386,-98 1153.0386,-98 1153.0386,-236 1153.0386,-236 1153.0386,-236 1145.4027,-236 1145.4027,-236"/>
<polygon fill="#000000" stroke="#000000" points="1145.4027,-232.5001 1135.4027,-236 1145.4026,-239.5001 1145.4027,-232.5001"/>
</g>
<!-- DashboardModule -->
<g id="node15" class="node">
<title>DashboardModule</title>
<polygon fill="#8dd3c7" stroke="#000000" points="1137.191,-198 1134.191,-202 1113.191,-202 1110.191,-198 1016.809,-198 1016.809,-162 1137.191,-162 1137.191,-198"/>
<text text-anchor="middle" x="1077" y="-175.8" font-family="Times,serif" font-size="14.00" fill="#000000">DashboardModule</text>
</g>
<!-- ThemeModule&#45;&gt;DashboardModule -->
<g id="edge23" class="edge">
<title>ThemeModule&#45;&gt;DashboardModule</title>
<path fill="none" stroke="#000000" d="M1047.7259,-122.0109C1047.7259,-122.0109 1047.7259,-151.855 1047.7259,-151.855"/>
<polygon fill="#000000" stroke="#000000" points="1044.226,-151.8549 1047.7259,-161.855 1051.226,-151.855 1044.226,-151.8549"/>
</g>
<!-- DashboardModule&#45;&gt;AppPagesModule -->
<g id="edge13" class="edge">
<title>DashboardModule&#45;&gt;AppPagesModule</title>
<path fill="none" stroke="#000000" d="M1077,-198.1061C1077,-198.1061 1077,-216.991 1077,-216.991"/>
<polygon fill="#000000" stroke="#000000" points="1073.5001,-216.9909 1077,-226.991 1080.5001,-216.991 1073.5001,-216.9909"/>
</g>
<!-- DashboardComponent -->
<g id="node16" class="node">
<title>DashboardComponent</title>
<polygon fill="#ffffb3" stroke="#000000" points="3028.9734,-122 2887.0266,-122 2887.0266,-86 3028.9734,-86 3028.9734,-122"/>
<text text-anchor="middle" x="2958" y="-99.8" font-family="Times,serif" font-size="14.00" fill="#000000">DashboardComponent</text>
</g>
<!-- DashboardComponent&#45;&gt;DashboardModule -->
<g id="edge14" class="edge">
<title>DashboardComponent&#45;&gt;DashboardModule</title>
<path fill="none" stroke="#000000" d="M2958,-122.2819C2958,-137.9478 2958,-158 2958,-158 2958,-158 1128.1584,-158 1128.1584,-158 1128.1584,-158 1128.1584,-158.3832 1128.1584,-158.3832"/>
<polygon fill="#000000" stroke="#000000" points="1124.6587,-151.832 1128.1584,-161.8321 1131.6587,-151.8322 1124.6587,-151.832"/>
</g>
<!-- StatusCardComponent -->
<g id="node17" class="node">
<title>StatusCardComponent</title>
<polygon fill="#ffffb3" stroke="#000000" points="2869.2674,-122 2726.7326,-122 2726.7326,-86 2869.2674,-86 2869.2674,-122"/>
<text text-anchor="middle" x="2798" y="-99.8" font-family="Times,serif" font-size="14.00" fill="#000000">StatusCardComponent</text>
</g>
<!-- StatusCardComponent&#45;&gt;DashboardModule -->
<g id="edge15" class="edge">
<title>StatusCardComponent&#45;&gt;DashboardModule</title>
<path fill="none" stroke="#000000" d="M2798,-122.0511C2798,-136.373 2798,-154 2798,-154 2798,-154 1119.2215,-154 1119.2215,-154 1119.2215,-154 1119.2215,-154.7942 1119.2215,-154.7942"/>
<polygon fill="#000000" stroke="#000000" points="1115.7216,-151.9421 1119.2215,-161.9421 1122.7216,-151.9422 1115.7216,-151.9421"/>
</g>
<!-- ContactsComponent -->
<g id="node18" class="node">
<title>ContactsComponent</title>
<polygon fill="#ffffb3" stroke="#000000" points="2708.3244,-122 2577.6756,-122 2577.6756,-86 2708.3244,-86 2708.3244,-122"/>
<text text-anchor="middle" x="2643" y="-99.8" font-family="Times,serif" font-size="14.00" fill="#000000">ContactsComponent</text>
</g>
<!-- ContactsComponent&#45;&gt;DashboardModule -->
<g id="edge16" class="edge">
<title>ContactsComponent&#45;&gt;DashboardModule</title>
<path fill="none" stroke="#000000" d="M2643,-122.1804C2643,-135.0382 2643,-150 2643,-150 2643,-150 1110.2845,-150 1110.2845,-150 1110.2845,-150 1110.2845,-151.8568 1110.2845,-151.8568"/>
<polygon fill="#000000" stroke="#000000" points="1106.7846,-151.8568 1110.2845,-161.8568 1113.7846,-151.8568 1106.7846,-151.8568"/>
</g>
<!-- RoomSelectorComponent -->
<g id="node19" class="node">
<title>RoomSelectorComponent</title>
<polygon fill="#ffffb3" stroke="#000000" points="2559.9284,-122 2398.0716,-122 2398.0716,-86 2559.9284,-86 2559.9284,-122"/>
<text text-anchor="middle" x="2479" y="-99.8" font-family="Times,serif" font-size="14.00" fill="#000000">RoomSelectorComponent</text>
</g>
<!-- RoomSelectorComponent&#45;&gt;DashboardModule -->
<g id="edge17" class="edge">
<title>RoomSelectorComponent&#45;&gt;DashboardModule</title>
<path fill="none" stroke="#000000" d="M2479,-122.0555C2479,-133.439 2479,-146 2479,-146 2479,-146 1101.3476,-146 1101.3476,-146 1101.3476,-146 1101.3476,-151.8056 1101.3476,-151.8056"/>
<polygon fill="#000000" stroke="#000000" points="1097.8477,-151.8055 1101.3476,-161.8056 1104.8477,-151.8056 1097.8477,-151.8055"/>
</g>
<!-- RoomsComponent -->
<g id="node20" class="node">
<title>RoomsComponent</title>
<polygon fill="#ffffb3" stroke="#000000" points="2380.5042,-122 2259.4958,-122 2259.4958,-86 2380.5042,-86 2380.5042,-122"/>
<text text-anchor="middle" x="2320" y="-99.8" font-family="Times,serif" font-size="14.00" fill="#000000">RoomsComponent</text>
</g>
<!-- RoomsComponent&#45;&gt;DashboardModule -->
<g id="edge18" class="edge">
<title>RoomsComponent&#45;&gt;DashboardModule</title>
<path fill="none" stroke="#000000" d="M2320,-122.1097C2320,-131.897 2320,-142 2320,-142 2320,-142 1092.4106,-142 1092.4106,-142 1092.4106,-142 1092.4106,-151.8903 1092.4106,-151.8903"/>
<polygon fill="#000000" stroke="#000000" points="1088.9107,-151.8903 1092.4106,-161.8903 1095.9107,-151.8904 1088.9107,-151.8903"/>
</g>
<!-- TeamComponent -->
<g id="node21" class="node">
<title>TeamComponent</title>
<polygon fill="#ffffb3" stroke="#000000" points="2241.705,-122 2128.295,-122 2128.295,-86 2241.705,-86 2241.705,-122"/>
<text text-anchor="middle" x="2185" y="-99.8" font-family="Times,serif" font-size="14.00" fill="#000000">TeamComponent</text>
</g>
<!-- TeamComponent&#45;&gt;DashboardModule -->
<g id="edge19" class="edge">
<title>TeamComponent&#45;&gt;DashboardModule</title>
<path fill="none" stroke="#000000" d="M2185,-122.1944C2185,-130.2782 2185,-138 2185,-138 2185,-138 1083.4737,-138 1083.4737,-138 1083.4737,-138 1083.4737,-151.9445 1083.4737,-151.9445"/>
<polygon fill="#000000" stroke="#000000" points="1079.9738,-151.9444 1083.4737,-161.9445 1086.9738,-151.9445 1079.9738,-151.9444"/>
</g>
<!-- KittenComponent -->
<g id="node22" class="node">
<title>KittenComponent</title>
<polygon fill="#ffffb3" stroke="#000000" points="2110.3259,-122 1993.6741,-122 1993.6741,-86 2110.3259,-86 2110.3259,-122"/>
<text text-anchor="middle" x="2052" y="-99.8" font-family="Times,serif" font-size="14.00" fill="#000000">KittenComponent</text>
</g>
<!-- KittenComponent&#45;&gt;DashboardModule -->
<g id="edge20" class="edge">
<title>KittenComponent&#45;&gt;DashboardModule</title>
<path fill="none" stroke="#000000" d="M2052,-122.1432C2052,-128.4611 2052,-134 2052,-134 2052,-134 1074.5367,-134 1074.5367,-134 1074.5367,-134 1074.5367,-151.8196 1074.5367,-151.8196"/>
<polygon fill="#000000" stroke="#000000" points="1071.0368,-151.8195 1074.5367,-161.8196 1078.0368,-151.8196 1071.0368,-151.8195"/>
</g>
<!-- SecurityCamerasComponent -->
<g id="node23" class="node">
<title>SecurityCamerasComponent</title>
<polygon fill="#ffffb3" stroke="#000000" points="1975.4622,-122 1798.5378,-122 1798.5378,-86 1975.4622,-86 1975.4622,-122"/>
<text text-anchor="middle" x="1887" y="-99.8" font-family="Times,serif" font-size="14.00" fill="#000000">SecurityCamerasComponent</text>
</g>
<!-- SecurityCamerasComponent&#45;&gt;DashboardModule -->
<g id="edge21" class="edge">
<title>SecurityCamerasComponent&#45;&gt;DashboardModule</title>
<path fill="none" stroke="#000000" d="M1887,-122.0579C1887,-126.4945 1887,-130 1887,-130 1887,-130 1065.5998,-130 1065.5998,-130 1065.5998,-130 1065.5998,-151.9489 1065.5998,-151.9489"/>
<polygon fill="#000000" stroke="#000000" points="1062.0999,-151.9488 1065.5998,-161.9489 1069.0999,-151.9489 1062.0999,-151.9488"/>
</g>
<!-- PlayerComponent -->
<g id="node24" class="node">
<title>PlayerComponent</title>
<polygon fill="#ffffb3" stroke="#000000" points="1780.5954,-122 1663.4046,-122 1663.4046,-86 1780.5954,-86 1780.5954,-122"/>
<text text-anchor="middle" x="1722" y="-99.8" font-family="Times,serif" font-size="14.00" fill="#000000">PlayerComponent</text>
</g>
<!-- PlayerComponent&#45;&gt;DashboardModule -->
<g id="edge22" class="edge">
<title>PlayerComponent&#45;&gt;DashboardModule</title>
<path fill="none" stroke="#000000" d="M1722,-122.1679C1722,-124.4478 1722,-126 1722,-126 1722,-126 1056.6628,-126 1056.6628,-126 1056.6628,-126 1056.6628,-151.7181 1056.6628,-151.7181"/>
<polygon fill="#000000" stroke="#000000" points="1053.1629,-151.718 1056.6628,-161.7181 1060.1629,-151.7181 1053.1629,-151.718"/>
</g>
<!-- DashboardRoutingModule -->
<g id="node25" class="node">
<title>DashboardRoutingModule</title>
<polygon fill="#8dd3c7" stroke="#000000" points="1638.8089,-122 1635.8089,-126 1614.8089,-126 1611.8089,-122 1473.1911,-122 1473.1911,-86 1638.8089,-86 1638.8089,-122"/>
<text text-anchor="middle" x="1556" y="-99.8" font-family="Times,serif" font-size="14.00" fill="#000000">DashboardRoutingModule</text>
</g>
<!-- DashboardRoutingModule&#45;&gt;DashboardModule -->
<g id="edge24" class="edge">
<title>DashboardRoutingModule&#45;&gt;DashboardModule</title>
<path fill="none" stroke="#000000" d="M1472.8533,-110C1352.7943,-110 1145.1248,-110 1145.1248,-110 1145.1248,-110 1145.1248,-180 1145.1248,-180 1145.1248,-180 1144.3434,-180 1144.3434,-180"/>
<polygon fill="#000000" stroke="#000000" points="1147.3101,-176.5001 1137.31,-180 1147.31,-183.5001 1147.3101,-176.5001"/>
</g>
<!-- PapersComponent -->
<g id="node26" class="node">
<title>PapersComponent</title>
<polygon fill="#ffffb3" stroke="#000000" points="3506.1499,-122 3387.8501,-122 3387.8501,-86 3506.1499,-86 3506.1499,-122"/>
<text text-anchor="middle" x="3447" y="-99.8" font-family="Times,serif" font-size="14.00" fill="#000000">PapersComponent</text>
</g>
<!-- PapersModule -->
<g id="node28" class="node">
<title>PapersModule</title>
<polygon fill="#8dd3c7" stroke="#000000" points="3350.3669,-198 3347.3669,-202 3326.3669,-202 3323.3669,-198 3253.6331,-198 3253.6331,-162 3350.3669,-162 3350.3669,-198"/>
<text text-anchor="middle" x="3302" y="-175.8" font-family="Times,serif" font-size="14.00" fill="#000000">PapersModule</text>
</g>
<!-- PapersComponent&#45;&gt;PapersModule -->
<g id="edge25" class="edge">
<title>PapersComponent&#45;&gt;PapersModule</title>
<path fill="none" stroke="#000000" d="M3447,-122.0109C3447,-144.4852 3447,-180 3447,-180 3447,-180 3360.6863,-180 3360.6863,-180"/>
<polygon fill="#000000" stroke="#000000" points="3360.6863,-176.5001 3350.6863,-180 3360.6862,-183.5001 3360.6863,-176.5001"/>
</g>
<!-- PaperListComponent -->
<g id="node27" class="node">
<title>PaperListComponent</title>
<polygon fill="#ffffb3" stroke="#000000" points="3369.4832,-122 3234.5168,-122 3234.5168,-86 3369.4832,-86 3369.4832,-122"/>
<text text-anchor="middle" x="3302" y="-99.8" font-family="Times,serif" font-size="14.00" fill="#000000">PaperListComponent</text>
</g>
<!-- PaperListComponent&#45;&gt;PapersModule -->
<g id="edge26" class="edge">
<title>PaperListComponent&#45;&gt;PapersModule</title>
<path fill="none" stroke="#000000" d="M3302,-122.0109C3302,-122.0109 3302,-151.855 3302,-151.855"/>
<polygon fill="#000000" stroke="#000000" points="3298.5001,-151.8549 3302,-161.855 3305.5001,-151.855 3298.5001,-151.8549"/>
</g>
<!-- PapersRoutingModule -->
<g id="node29" class="node">
<title>PapersRoutingModule</title>
<polygon fill="#8dd3c7" stroke="#000000" points="3210.9846,-122 3207.9846,-126 3186.9846,-126 3183.9846,-122 3069.0154,-122 3069.0154,-86 3210.9846,-86 3210.9846,-122"/>
<text text-anchor="middle" x="3140" y="-99.8" font-family="Times,serif" font-size="14.00" fill="#000000">PapersRoutingModule</text>
</g>
<!-- PapersRoutingModule&#45;&gt;PapersModule -->
<g id="edge27" class="edge">
<title>PapersRoutingModule&#45;&gt;PapersModule</title>
<path fill="none" stroke="#000000" d="M3140,-122.0109C3140,-144.4852 3140,-180 3140,-180 3140,-180 3243.3947,-180 3243.3947,-180"/>
<polygon fill="#000000" stroke="#000000" points="3243.3947,-183.5001 3253.3947,-180 3243.3946,-176.5001 3243.3947,-183.5001"/>
</g>
</g>
</svg>
