<?xml version="1.0" encoding="UTF-8" standalone="no"?>
<!DOCTYPE svg PUBLIC "-//W3C//DTD SVG 1.1//EN"
 "http://www.w3.org/Graphics/SVG/1.1/DTD/svg11.dtd">
<!-- Generated by graphviz version 2.40.1 (20161225.0304)
 -->
<!-- Title: dependencies Pages: 1 -->
<svg width="504pt" height="211pt"
 viewBox="0.00 0.00 504.00 211.00" xmlns="http://www.w3.org/2000/svg" xmlns:xlink="http://www.w3.org/1999/xlink">
<g id="graph0" class="graph" transform="scale(1 1) rotate(0) translate(4 207)">
<title>dependencies</title>
<polygon fill="#ffffff" stroke="transparent" points="-4,4 -4,-207 500,-207 500,4 -4,4"/>
<text text-anchor="start" x="227.0091" y="-42.4" font-family="sans-serif" font-weight="bold" font-size="14.00" fill="#000000">Legend</text>
<polygon fill="#ffffb3" stroke="transparent" points="14,-10 14,-30 34,-30 34,-10 14,-10"/>
<text text-anchor="start" x="37.629" y="-15.4" font-family="sans-serif" font-size="14.00" fill="#000000"> &#160;Declarations</text>
<polygon fill="#8dd3c7" stroke="transparent" points="127,-10 127,-30 147,-30 147,-10 127,-10"/>
<text text-anchor="start" x="150.7251" y="-15.4" font-family="sans-serif" font-size="14.00" fill="#000000"> &#160;Module</text>
<polygon fill="#80b1d3" stroke="transparent" points="213,-10 213,-30 233,-30 233,-10 213,-10"/>
<text text-anchor="start" x="236.7812" y="-15.4" font-family="sans-serif" font-size="14.00" fill="#000000"> &#160;Bootstrap</text>
<polygon fill="#fdb462" stroke="transparent" points="310,-10 310,-30 330,-30 330,-10 310,-10"/>
<text text-anchor="start" x="333.6732" y="-15.4" font-family="sans-serif" font-size="14.00" fill="#000000"> &#160;Providers</text>
<polygon fill="#fb8072" stroke="transparent" points="406,-10 406,-30 426,-30 426,-10 406,-10"/>
<text text-anchor="start" x="429.7258" y="-15.4" font-family="sans-serif" font-size="14.00" fill="#000000"> &#160;Exports</text>
<g id="clust1" class="cluster">
<title>cluster_PapersModule</title>
<polygon fill="none" stroke="#000000" stroke-dasharray="1,5" points="13.5,-70 13.5,-195 482.5,-195 482.5,-70 13.5,-70"/>
</g>
<g id="clust2" class="cluster">
<title>cluster_PapersModule_declarations</title>
<polygon fill="none" stroke="#000000" points="187.5,-78 187.5,-130 474.5,-130 474.5,-78 187.5,-78"/>
</g>
<g id="clust5" class="cluster">
<title>cluster_PapersModule_imports</title>
<polygon fill="none" stroke="#000000" points="21.5,-78 21.5,-130 179.5,-130 179.5,-78 21.5,-78"/>
</g>
<!-- PapersComponent -->
<g id="node1" class="node">
<title>PapersComponent</title>
<polygon fill="#ffffb3" stroke="#000000" points="466.6499,-122 348.3501,-122 348.3501,-86 466.6499,-86 466.6499,-122"/>
<text text-anchor="middle" x="407.5" y="-99.8" font-family="Times,serif" font-size="14.00" fill="#000000">PapersComponent</text>
</g>
<!-- PapersModule -->
<g id="node3" class="node">
<title>PapersModule</title>
<polygon fill="#8dd3c7" stroke="#000000" points="310.8669,-187 307.8669,-191 286.8669,-191 283.8669,-187 214.1331,-187 214.1331,-151 310.8669,-151 310.8669,-187"/>
<text text-anchor="middle" x="262.5" y="-164.8" font-family="Times,serif" font-size="14.00" fill="#000000">PapersModule</text>
</g>
<!-- PapersComponent&#45;&gt;PapersModule -->
<g id="edge1" class="edge">
<title>PapersComponent&#45;&gt;PapersModule</title>
<path fill="none" stroke="#000000" d="M407.5,-122.1061C407.5,-141.3391 407.5,-169 407.5,-169 407.5,-169 321.1863,-169 321.1863,-169"/>
<polygon fill="#000000" stroke="#000000" points="321.1863,-165.5001 311.1863,-169 321.1862,-172.5001 321.1863,-165.5001"/>
</g>
<!-- PaperListComponent -->
<g id="node2" class="node">
<title>PaperListComponent</title>
<polygon fill="#ffffb3" stroke="#000000" points="329.9832,-122 195.0168,-122 195.0168,-86 329.9832,-86 329.9832,-122"/>
<text text-anchor="middle" x="262.5" y="-99.8" font-family="Times,serif" font-size="14.00" fill="#000000">PaperListComponent</text>
</g>
<!-- PaperListComponent&#45;&gt;PapersModule -->
<g id="edge2" class="edge">
<title>PaperListComponent&#45;&gt;PapersModule</title>
<path fill="none" stroke="#000000" d="M262.5,-122.1061C262.5,-122.1061 262.5,-140.991 262.5,-140.991"/>
<polygon fill="#000000" stroke="#000000" points="259.0001,-140.9909 262.5,-150.991 266.0001,-140.991 259.0001,-140.9909"/>
</g>
<!-- PapersRoutingModule -->
<g id="node4" class="node">
<title>PapersRoutingModule</title>
<polygon fill="#8dd3c7" stroke="#000000" points="171.4846,-122 168.4846,-126 147.4846,-126 144.4846,-122 29.5154,-122 29.5154,-86 171.4846,-86 171.4846,-122"/>
<text text-anchor="middle" x="100.5" y="-99.8" font-family="Times,serif" font-size="14.00" fill="#000000">PapersRoutingModule</text>
</g>
<!-- PapersRoutingModule&#45;&gt;PapersModule -->
<g id="edge3" class="edge">
<title>PapersRoutingModule&#45;&gt;PapersModule</title>
<path fill="none" stroke="#000000" d="M100.5,-122.1061C100.5,-141.3391 100.5,-169 100.5,-169 100.5,-169 203.8947,-169 203.8947,-169"/>
<polygon fill="#000000" stroke="#000000" points="203.8947,-172.5001 213.8947,-169 203.8946,-165.5001 203.8947,-172.5001"/>
</g>
</g>
</svg>
