<?xml version="1.0" encoding="UTF-8" standalone="no"?>
<!DOCTYPE svg PUBLIC "-//W3C//DTD SVG 1.1//EN"
 "http://www.w3.org/Graphics/SVG/1.1/DTD/svg11.dtd">
<!-- Generated by graphviz version 2.40.1 (20161225.0304)
 -->
<!-- Title: dependencies Pages: 1 -->
<svg width="553pt" height="284pt"
 viewBox="0.00 0.00 553.00 284.00" xmlns="http://www.w3.org/2000/svg" xmlns:xlink="http://www.w3.org/1999/xlink">
<g id="graph0" class="graph" transform="scale(1 1) rotate(0) translate(4 280)">
<title>dependencies</title>
<polygon fill="#ffffff" stroke="transparent" points="-4,4 -4,-280 549,-280 549,4 -4,4"/>
<text text-anchor="start" x="251.5091" y="-42.4" font-family="sans-serif" font-weight="bold" font-size="14.00" fill="#000000">Legend</text>
<polygon fill="#ffffb3" stroke="transparent" points="38.5,-10 38.5,-30 58.5,-30 58.5,-10 38.5,-10"/>
<text text-anchor="start" x="62.129" y="-15.4" font-family="sans-serif" font-size="14.00" fill="#000000"> &#160;Declarations</text>
<polygon fill="#8dd3c7" stroke="transparent" points="151.5,-10 151.5,-30 171.5,-30 171.5,-10 151.5,-10"/>
<text text-anchor="start" x="175.2251" y="-15.4" font-family="sans-serif" font-size="14.00" fill="#000000"> &#160;Module</text>
<polygon fill="#80b1d3" stroke="transparent" points="237.5,-10 237.5,-30 257.5,-30 257.5,-10 237.5,-10"/>
<text text-anchor="start" x="261.2812" y="-15.4" font-family="sans-serif" font-size="14.00" fill="#000000"> &#160;Bootstrap</text>
<polygon fill="#fdb462" stroke="transparent" points="334.5,-10 334.5,-30 354.5,-30 354.5,-10 334.5,-10"/>
<text text-anchor="start" x="358.1732" y="-15.4" font-family="sans-serif" font-size="14.00" fill="#000000"> &#160;Providers</text>
<polygon fill="#fb8072" stroke="transparent" points="430.5,-10 430.5,-30 450.5,-30 450.5,-10 430.5,-10"/>
<text text-anchor="start" x="454.2258" y="-15.4" font-family="sans-serif" font-size="14.00" fill="#000000"> &#160;Exports</text>
<g id="clust1" class="cluster">
<title>cluster_AppCoreModule</title>
<polygon fill="none" stroke="#000000" stroke-dasharray="1,5" points="8,-70 8,-268 537,-268 537,-70 8,-70"/>
</g>
<g id="clust2" class="cluster">
<title>cluster_AppCoreModule_declarations</title>
<polygon fill="none" stroke="#000000" points="214,-78 214,-130 529,-130 529,-78 214,-78"/>
</g>
<g id="clust6" class="cluster">
<title>cluster_AppCoreModule_exports</title>
<polygon fill="none" stroke="#000000" points="212,-208 212,-260 364,-260 364,-208 212,-208"/>
</g>
<g id="clust8" class="cluster">
<title>cluster_AppCoreModule_providers</title>
<polygon fill="none" stroke="#000000" points="16,-78 16,-130 206,-130 206,-78 16,-78"/>
</g>
<!-- NotificationComponent -->
<g id="node1" class="node">
<title>NotificationComponent</title>
<polygon fill="#ffffb3" stroke="#000000" points="521.4818,-122 372.5182,-122 372.5182,-86 521.4818,-86 521.4818,-122"/>
<text text-anchor="middle" x="447" y="-99.8" font-family="Times,serif" font-size="14.00" fill="#000000">NotificationComponent</text>
</g>
<!-- AppCoreModule -->
<g id="node3" class="node">
<title>AppCoreModule</title>
<polygon fill="#8dd3c7" stroke="#000000" points="343.3683,-187 340.3683,-191 319.3683,-191 316.3683,-187 232.6317,-187 232.6317,-151 343.3683,-151 343.3683,-187"/>
<text text-anchor="middle" x="288" y="-164.8" font-family="Times,serif" font-size="14.00" fill="#000000">AppCoreModule</text>
</g>
<!-- NotificationComponent&#45;&gt;AppCoreModule -->
<g id="edge1" class="edge">
<title>NotificationComponent&#45;&gt;AppCoreModule</title>
<path fill="none" stroke="#000000" d="M447,-122.1061C447,-141.3391 447,-169 447,-169 447,-169 353.6105,-169 353.6105,-169"/>
<polygon fill="#000000" stroke="#000000" points="353.6105,-165.5001 343.6105,-169 353.6104,-172.5001 353.6105,-165.5001"/>
</g>
<!-- AppCoreComponent -->
<g id="node2" class="node">
<title>AppCoreComponent</title>
<polygon fill="#ffffb3" stroke="#000000" points="354.1513,-122 221.8487,-122 221.8487,-86 354.1513,-86 354.1513,-122"/>
<text text-anchor="middle" x="288" y="-99.8" font-family="Times,serif" font-size="14.00" fill="#000000">AppCoreComponent</text>
</g>
<!-- AppCoreComponent&#45;&gt;AppCoreModule -->
<g id="edge2" class="edge">
<title>AppCoreComponent&#45;&gt;AppCoreModule</title>
<path fill="none" stroke="#000000" d="M288,-122.1061C288,-122.1061 288,-140.991 288,-140.991"/>
<polygon fill="#000000" stroke="#000000" points="284.5001,-140.9909 288,-150.991 291.5001,-140.991 284.5001,-140.9909"/>
</g>
<!-- AppCoreComponent  -->
<g id="node4" class="node">
<title>AppCoreComponent </title>
<polygon fill="#fb8072" stroke="#000000" points="356.1509,-252 219.8491,-252 219.8491,-216 356.1509,-216 356.1509,-252"/>
<text text-anchor="middle" x="288" y="-229.8" font-family="Times,serif" font-size="14.00" fill="#000000">AppCoreComponent </text>
</g>
<!-- AppCoreModule&#45;&gt;AppCoreComponent  -->
<g id="edge3" class="edge">
<title>AppCoreModule&#45;&gt;AppCoreComponent </title>
<path fill="none" stroke="#000000" stroke-dasharray="5,2" d="M288,-187.1061C288,-187.1061 288,-205.991 288,-205.991"/>
<polygon fill="#000000" stroke="#000000" points="284.5001,-205.9909 288,-215.991 291.5001,-205.991 284.5001,-205.9909"/>
</g>
<!-- NotificationService -->
<g id="node5" class="node">
<title>NotificationService</title>
<ellipse fill="#fdb462" stroke="#000000" cx="111" cy="-104" rx="86.8107" ry="18"/>
<text text-anchor="middle" x="111" y="-99.8" font-family="Times,serif" font-size="14.00" fill="#000000">NotificationService</text>
</g>
<!-- NotificationService&#45;&gt;AppCoreModule -->
<g id="edge4" class="edge">
<title>NotificationService&#45;&gt;AppCoreModule</title>
<path fill="none" stroke="#000000" d="M111,-122.1061C111,-141.3391 111,-169 111,-169 111,-169 222.4817,-169 222.4817,-169"/>
<polygon fill="#000000" stroke="#000000" points="222.4818,-172.5001 232.4817,-169 222.4817,-165.5001 222.4818,-172.5001"/>
</g>
</g>
</svg>
